/* XPM */
static char *_a3417ce21804448a2f3fdb72cc736f6nx4eWiIjCpluYPhS[] = {
/* columns rows colors chars-per-pixel */
"32 32 6 1 ",
"  c None",
". c black",
"X c #FF9600",
"o c gray77",
"O c #E6E6E6",
"+ c white",
/* pixels */
"                                ",
"                                ",
"                                ",
"                                ",
"      ...  .............        ",
"      .X....X.ooooooo.XX.       ",
"      .XXXXXX.ooooooo.XXX.      ",
"      .XXXXXX.ooooooo.XXXX.     ",
"      .XXXXXX.ooooooo.XXXXX.    ",
"      .XXXXXX.........XXXXX.    ",
"      .XXXXXXXXXXXXXXXXXXXX.    ",
"      .XXXXXXXXXXXXXXXXXXXX.    ",
"      .XXXXXXXXXXXXXXXXXXXX.    ",
"      .XXXXXXXXXXXXXXXXXXXX.    ",
"      .XXXXXXXXXXXXXXXXXXXX.    ",
"      .X..................X.    ",
"      .X.++++++++++++++++.X.    ",
"      .X.++++++++++++++++.X.    ",
"      .X.++++++++++++++++.X.    ",
"      .X.+OOOOOOOOOOOOOO+.X.    ",
"      .X.++++++++++++++++.X.    ",
"      .X.++++++++++++++++.X.    ",
"      .X.++++++++++++++++.X.    ",
"      .X.+OOOOOOOOOOOOOO+.X.    ",
"      .X.++++++++++++++++.X.    ",
"      .X.++++++++++++++++.X.    ",
"      ......................    ",
"                                ",
"                                ",
"                                ",
"                                ",
"                                "
};
